PathFileType	4	(X/Y/Z)	c:/Users/goper/Files/vsCode/490R/osim_files/A03/A03_Static01.trc
DataRate	CameraRate	NumFrames	NumMarkers	Units                	OrigDataRate	OrigDataStartFrame	OrigNumFrames
250.00	250.00	9	36	mm	250.0	1047	1674
                Frame#	Time	LPSIS			LASIS			LTH1			LTH2			LTH3			LTH4			LLFE			LMFE			LSH1			LSH2			LSH3			LSH4			LLMAL			LMMAL			LCAL			LMTP5			LTOE			LMTP1			RPSIS			RASIS			RTH1			RTH2			RTH3			RTH4			RLFE			RMFE			RSH1			RSH2			RSH3			RSH4			RLMAL			RMMAL			RCAL			RMTP1			RTOE			RMTP5		
		X1	Y1	Z1	X2	Y2	Z2	X3	Y3	Z3	X4	Y4	Z4	X5	Y5	Z5	X6	Y6	Z6	X7	Y7	Z7	X8	Y8	Z8	X9	Y9	Z9	X10	Y10	Z10	X11	Y11	Z11	X12	Y12	Z12	X13	Y13	Z13	X14	Y14	Z14	X15	Y15	Z15	X16	Y16	Z16	X17	Y17	Z17	X18	Y18	Z18	X19	Y19	Z19	X20	Y20	Z20	X21	Y21	Z21	X22	Y22	Z22	X23	Y23	Z23	X24	Y24	Z24	X25	Y25	Z25	X26	Y26	Z26	X27	Y27	Z27	X28	Y28	Z28	X29	Y29	Z29	X30	Y30	Z30	X31	Y31	Z31	X32	Y32	Z32	X33	Y33	Z33	X34	Y34	Z34	X35	Y35	Z35	X36	Y36	Z36

1047	4.18400	-357.29636	1068.98621	423.64804	-116.53653	990.57605	313.09909	-184.55060	660.39264	243.08165	-177.02277	617.52618	242.97009	-122.99242	664.14996	255.24664	-125.23597	620.29822	254.66943	-174.81107	561.93188	248.11536	-145.50510	530.98889	399.81256	-230.89558	478.98846	242.39117	-235.79016	431.01224	238.45296	-169.80153	464.73425	241.16554	-185.18233	419.39725	241.28078	-283.17993	105.15247	230.01402	-263.49966	104.86077	322.21927	-349.97592	85.43066	288.29446	-139.11676	42.15684	197.83224	-101.18905	69.05886	263.87650	-127.00375	48.28336	311.50912	-357.82379	1071.33899	492.43008	-125.64475	989.37701	620.83911	-230.01239	661.72021	690.39978	-228.29736	617.07031	686.78174	-169.71448	657.43396	697.44244	-174.91414	613.53650	692.85687	-204.60971	549.90143	681.58972	-144.08356	541.73956	570.05560	-262.17871	487.60074	678.16779	-270.96054	449.29755	694.72797	-204.07635	475.93604	696.52026	-222.00293	434.36588	710.15186	-282.09454	129.92751	701.04639	-230.88698	118.26340	622.88745	-332.79227	87.43024	647.08533	-120.13631	49.83805	629.92700	-95.38150	71.44429	680.75549	-133.48561	40.86012	747.84241
1048	4.18800	-357.30402	1068.98608	423.66162	-116.52538	990.56537	313.08240	-184.53424	660.38525	243.08839	-177.01251	617.52649	242.95795	-122.96488	664.15802	255.24132	-125.21758	620.30206	254.65375	-174.79512	561.91748	248.10858	-145.47025	530.98767	399.80795	-230.89038	478.98004	242.37578	-235.49637	430.76917	238.32646	-169.75854	464.67004	241.23703	-185.19882	419.38599	241.26994	-283.19385	105.14690	230.01160	-263.48425	104.85113	322.20456	-349.97903	85.42984	288.30511	-139.11768	42.15823	197.84335	-101.14651	69.08524	263.87915	-126.97476	48.28418	311.50568	-357.81439	1071.31763	492.44092	-125.65211	989.34766	620.86420	-230.02293	661.69141	690.42139	-227.65752	618.05402	687.60278	-169.73999	657.41785	697.45105	-174.94615	613.52747	692.87238	-204.63629	549.89362	681.60278	-144.10085	541.71204	570.05994	-262.19272	487.59348	678.18494	-270.96475	449.29385	694.74841	-204.09911	475.92072	696.54437	-222.02321	434.35596	710.14740	-282.17416	129.98425	701.04883	-230.88779	118.27198	622.90625	-332.80176	87.42943	647.10266	-120.12991	49.85987	629.92908	-95.39907	71.42460	680.75488	-133.50589	40.84434	747.85809
1049	4.19200	-357.28436	1068.99243	423.65466	-116.51734	990.55084	313.09726	-184.52377	660.37787	243.08093	-177.00304	617.51996	242.94615	-122.95782	664.14746	255.22346	-125.21145	620.28864	254.63503	-174.80365	561.91534	248.08368	-145.50800	530.95172	399.80707	-230.86639	478.98782	242.36275	-235.44398	430.75925	238.29037	-169.75110	464.64703	241.21523	-185.17310	419.38641	241.26196	-283.18137	105.14681	230.01164	-263.47974	104.84851	322.21567	-349.98306	85.43668	288.26666	-139.12175	42.14147	197.84431	-101.15833	69.06407	263.88147	-127.00024	48.27862	311.50522	-357.76825	1071.33728	492.44678	-125.68407	989.28241	620.84839	-230.05806	661.69757	690.40875	-228.34756	617.05792	686.78577	-169.74084	657.40814	697.46545	-174.93414	613.51642	692.87750	-204.67384	549.88477	681.57751	-144.10155	541.73187	570.04840	-262.21576	487.59109	678.18732	-270.99075	449.30505	694.75378	-204.12798	475.90134	696.54474	-222.03424	434.36484	710.16736	-282.11423	129.90031	701.07959	-230.85141	118.27557	622.91437	-332.82843	87.42406	647.12054	-120.12550	49.84866	629.93372	-95.40665	71.42064	680.75787	-133.48026	40.83058	747.85394
1050	4.19600	-357.28632	1068.99060	423.65271	-116.52516	990.53625	313.10275	-184.50290	660.37305	243.07884	-176.99246	617.51758	242.92953	-122.92863	664.13715	255.21782	-125.18896	620.29645	254.62895	-174.76109	561.92383	248.05594	-145.47505	530.95123	399.78131	-230.86685	478.98535	242.35239	-235.44797	430.76660	238.27953	-169.70084	464.64673	241.22157	-185.17073	419.37357	241.25333	-283.16962	105.14194	230.01961	-263.49295	104.82886	322.22321	-349.99396	85.41589	288.29044	-139.12846	42.11513	197.84810	-101.15767	69.04439	263.89279	-126.99302	48.28659	311.50641	-357.77454	1071.34680	492.45837	-125.64638	989.32031	620.85480	-230.05257	661.68915	690.41058	-228.34981	617.06134	686.79370	-169.75330	657.41223	697.45599	-174.94331	613.52057	692.87268	-204.66545	549.89490	681.57397	-144.10461	541.72992	570.04572	-262.24414	487.58334	678.18036	-270.95285	449.28656	694.77039	-204.13329	475.90839	696.54059	-222.05594	434.36261	710.17096	-282.07138	129.89964	701.09021	-231.05960	118.23135	622.98608	-332.82709	87.41048	647.11707	-120.13416	49.85340	629.93921	-95.39790	71.43133	680.76062	-133.48474	40.83297	747.84320
1051	4.20000	-357.26840	1068.97241	423.68259	-116.50313	990.54962	313.10434	-184.49747	660.35016	243.06921	-176.97601	617.51208	242.92131	-122.91298	664.13873	255.20024	-125.15210	620.27454	254.59966	-174.73817	561.90948	248.04659	-145.44432	530.96472	399.76944	-230.85826	478.98157	242.34734	-235.43478	430.76425	238.27873	-169.67653	464.64685	241.20090	-185.14392	419.34985	241.24498	-283.18939	105.14475	230.01263	-263.47632	104.82852	322.22287	-350.00357	85.43703	288.29858	-139.10706	42.12718	197.84398	-101.15209	69.05682	263.89850	-126.99120	48.27944	311.50797	-357.76083	1071.34009	492.45706	-125.62961	989.32245	620.84375	-230.03119	661.68622	690.40143	-228.34871	617.08264	686.78259	-169.71722	657.42010	697.46118	-174.94063	613.51868	692.86542	-204.68033	549.91815	681.58484	-144.10898	541.72601	570.04956	-262.21649	487.58731	678.18146	-270.97534	449.28644	694.74915	-203.99614	475.94775	696.55573	-222.01093	434.34125	710.17041	-282.05917	129.87692	701.09222	-231.03452	118.23709	623.00787	-332.80856	87.43144	647.10138	-120.12562	49.83262	629.93976	-95.39584	71.42845	680.77179	-133.49884	40.83122	747.86487
1052	4.20400	-357.26917	1068.98999	423.68582	-116.48566	990.54462	313.09644	-184.49304	660.36157	243.05428	-176.95013	617.51178	242.91145	-122.86180	664.14240	255.18475	-125.12891	620.28564	254.57831	-174.69699	561.90381	248.02933	-145.37898	530.97827	399.73431	-230.84401	478.97897	242.33711	-235.40091	430.75378	238.25723	-169.66055	464.63284	241.17747	-185.12369	419.34314	241.23692	-283.19000	105.14234	230.02431	-263.48129	104.83112	322.19675	-349.99152	85.44740	288.30460	-139.11546	42.12260	197.85304	-101.13298	69.06139	263.87509	-126.99347	48.27064	311.51215	-357.74783	1071.35706	492.44635	-125.57713	989.36334	620.83215	-230.00632	661.71417	690.40063	-228.31862	617.08289	686.77667	-169.70898	657.42340	697.43488	-174.91322	613.53821	692.85278	-204.67097	549.92712	681.59729	-144.10811	541.73071	570.03741	-262.19882	487.60953	678.18170	-270.97751	449.30438	694.74475	-204.12753	475.92316	696.51721	-222.01488	434.34042	710.17615	-282.09836	129.89288	701.08496	-230.88533	118.26996	622.92090	-332.95047	87.38800	647.18665	-120.14622	49.83644	629.93689	-95.39645	71.44307	680.77521	-133.50539	40.82236	747.87006
1053	4.20800	-357.22226	1068.98376	423.69977	-116.46276	990.53723	313.08508	-184.46155	660.36554	243.02515	-176.90463	617.50446	242.86755	-122.86320	664.14941	255.18028	-125.08521	620.30029	254.56403	-174.67570	561.90869	248.00970	-145.36485	530.98328	399.70752	-230.78668	478.96915	242.30180	-235.38234	430.75360	238.23357	-169.63568	464.62650	241.15605	-185.10631	419.33591	241.20853	-283.18173	105.15263	230.00209	-263.47186	104.84688	322.22617	-349.97556	85.43419	288.28857	-139.11557	42.12600	197.84111	-101.43511	68.77528	263.99219	-126.99314	48.26704	311.51154	-357.72360	1071.34436	492.47073	-125.57533	989.37732	620.82904	-230.02322	661.72272	690.41553	-228.30721	617.10651	686.78516	-169.70493	657.45007	697.42993	-174.92355	613.55188	692.84344	-204.66580	549.93872	681.59180	-144.09932	541.69427	570.02142	-262.21390	487.63733	678.16498	-270.95642	449.31461	694.75116	-204.13817	475.92200	696.51855	-222.01230	434.34259	710.18207	-282.05371	129.89598	701.11035	-231.03798	118.24405	622.99677	-332.81174	87.46122	647.08398	-120.12118	49.86210	629.94171	-95.39157	71.44521	680.77911	-133.52725	40.82833	747.87927
1054	4.21200	-357.26175	1069.00232	423.68460	-116.47794	990.52716	313.07877	-184.41725	660.36475	243.02301	-176.88319	617.50555	242.85654	-122.84280	664.15149	255.16119	-125.07215	620.29987	254.54872	-174.64499	561.88489	247.98997	-145.35892	530.96576	399.68988	-230.76041	478.97421	242.28653	-235.35042	430.76364	238.23499	-169.59447	464.64819	241.14746	-185.07407	419.36401	241.21626	-283.18497	105.14671	230.01079	-263.45789	104.84261	322.21396	-349.96732	85.44997	288.29996	-139.11684	42.12091	197.84697	-101.15419	69.00945	263.89120	-127.00458	48.24879	311.51456	-357.67288	1071.33667	492.48096	-125.60703	989.37366	620.84344	-230.06419	661.75537	690.38806	-228.36923	617.11224	686.77240	-169.73798	657.45447	697.41437	-174.93744	613.55725	692.84656	-204.73074	549.94836	681.56604	-144.09753	541.70258	570.04492	-262.24298	487.64691	678.15582	-271.00934	449.32584	694.73962	-204.17511	475.94388	696.51520	-222.01421	434.33881	710.17767	-282.05664	129.88864	701.12195	-230.90054	118.27969	622.92529	-332.86728	87.48061	647.09302	-120.11601	49.86139	629.94281	-95.38042	71.42781	680.75317	-133.51878	40.81120	747.84125
1055	4.21600	-357.21964	1068.98389	423.70428	-116.46936	990.52325	313.08081	-184.39430	660.36108	243.00079	-176.84224	617.51477	242.83353	-122.79569	664.16321	255.14265	-125.05219	620.29211	254.53232	-174.60117	561.89038	247.97922	-145.34398	530.97357	399.68570	-230.71231	478.97662	242.27817	-235.29848	430.75055	238.20570	-169.57805	464.64056	241.12057	-185.05287	419.36969	241.18993	-283.18137	105.16546	230.01180	-263.46771	104.84678	322.21292	-349.95523	85.44942	288.30438	-139.10519	42.14198	197.84647	-101.44328	68.77579	263.99380	-127.00285	48.25220	311.51074	-357.68713	1071.34436	492.47742	-125.60179	989.35223	620.83856	-230.07936	661.76184	690.39716	-228.40657	617.12146	686.78003	-169.75232	657.45605	697.43372	-174.96056	613.57269	692.85291	-204.75610	549.94904	681.57690	-144.10767	541.71338	570.04669	-262.28598	487.65704	678.17072	-271.04654	449.35019	694.75012	-204.20644	475.93616	696.51501	-222.02467	434.35388	710.15796	-282.06732	129.88785	701.10803	-231.05659	118.24638	623.00684	-332.87579	87.47975	647.09076	-120.13996	49.85675	629.94757	-95.39458	71.44244	680.75226	-133.50975	40.82047	747.85565
